<svg id="Arrow" xmlns="http://www.w3.org/2000/svg" viewBox="0 0 500 433.41"><defs><style>.cls-1{fill:#fff;}</style></defs><title>back</title><path class="cls-1" d="M223.9,263.31l196.2,143.9c10.6,7.8,22.1,11.8,33.3,11.8,23.2,0,46.6-18,46.6-52.3v-300c0-34.4-23.4-52.3-46.6-52.3-11.3,0-22.8,4.1-33.3,11.8l-196.2,144c-15.7,11.5-24.7,28.5-24.7,46.6S208.1,251.81,223.9,263.31Z"/><path class="cls-1" d="M66.7,433.41a66.75,66.75,0,0,0,66.7-66.7v-300A66.7,66.7,0,0,0,0,66.69v300A66.75,66.75,0,0,0,66.7,433.41Z"/></svg>