<?xml version="1.0" encoding="utf-8"?>
<!-- Generator: Adobe Illustrator 18.1.0, SVG Export Plug-In . SVG Version: 6.00 Build 0)  -->
<!DOCTYPE svg PUBLIC "-//W3C//DTD SVG 1.1//EN" "http://www.w3.org/Graphics/SVG/1.1/DTD/svg11.dtd">
<svg version="1.1" id="Arrow_1_" xmlns="http://www.w3.org/2000/svg" xmlns:xlink="http://www.w3.org/1999/xlink" x="0px" y="0px"
	 width="500px" height="500px" viewBox="0 0 500 500" enable-background="new 0 0 500 500" xml:space="preserve">
  <metadata>
    <?xpacket begin="﻿" id="W5M0MpCehiHzreSzNTczkc9d"?>
    <x:xmpmeta xmlns:x="adobe:ns:meta/" x:xmptk="Adobe XMP Core 5.6-c011 79.156380, 2014/06/19-23:40:37        ">
     <rdf:RDF xmlns:rdf="http://www.w3.org/1999/02/22-rdf-syntax-ns#">
      <rdf:Description rdf:about=""
        xmlns:xmpMM="http://ns.adobe.com/xap/1.0/mm/"
        xmlns:stEvt="http://ns.adobe.com/xap/1.0/sType/ResourceEvent#"
        xmlns:xmp="http://ns.adobe.com/xap/1.0/"
        xmlns:xmpRights="http://ns.adobe.com/xap/1.0/rights/"
        xmlns:dc="http://purl.org/dc/elements/1.1/"
       xmpMM:DocumentID="xmp.did:6b6ac432038796700ca03fa6daa7cbad"
       xmpMM:OriginalDocumentID="xmp.did:6b6ac432038796700ca03fa6daa7cbad"
       xmpMM:InstanceID="xmp.iid:6b6ac432038796700ca03fa6daa7cbad"
       xmp:ModifyDate="2015-04-15T15:09:04+02:00"
       xmp:MetadataDate="2015-04-15T15:09:04+02:00"
       xmpRights:Marked="True"
       xmpRights:WebStatement="http://www.adobe.com/legal/general-terms.html">
       <xmpMM:History>
        <rdf:Seq>
         <rdf:li
          stEvt:action="saved"
          stEvt:instanceID="xmp.iid:6b6ac432038796700ca03fa6daa7cbad"
          stEvt:when="2015-04-15T15:09:04+02:00"/>
        </rdf:Seq>
       </xmpMM:History>
       <xmpRights:UsageTerms>
        <rdf:Alt>
         <rdf:li xml:lang="x-default">This work is licensed under the Adobe General Terms of Use http://www.adobe.com/legal/general-terms.html.</rdf:li>
        </rdf:Alt>
       </xmpRights:UsageTerms>
       <dc:publisher>
        <rdf:Bag>
         <rdf:li>Adobe Systems Incorporated</rdf:li>
        </rdf:Bag>
       </dc:publisher>
      </rdf:Description>
     </rdf:RDF>
    </x:xmpmeta>
    <?xpacket end="r"?>
  </metadata>
<path d="M244.2,44.2V9.7c0-8.6-8.6-11.5-17.3-8.6L117.6,84.5c-8.6,8.6-8.6,23,0,28.8l109.3,83.4c5.8,5.8,17.3,0,17.3-8.6v-31.7
	c0-11.5,11.5-20.1,23-17.3c80.6,11.5,138.1,89.2,120.9,175.5c-11.5,54.7-54.7,97.8-109.3,109.3c-95,20.1-178.4-51.8-178.4-141
	c0-28.8,8.6-57.6,25.9-80.6c11.5-17.3,5.8-37.4-8.6-48.9l0,0c-17.3-11.5-37.4-8.6-48.9,8.6c-31.7,46-46,103.6-31.7,166.9
	c17.3,83.4,86.3,152.5,169.8,166.9c138.1,25.9,261.9-77.7,261.9-212.9c0-115.1-86.3-207.2-198.5-215.8
	C252.8,61.5,244.2,52.9,244.2,44.2z"/>
</svg>
