<svg xmlns="http://www.w3.org/2000/svg" xmlns:xlink="http://www.w3.org/1999/xlink" preserveAspectRatio="xMidYMid" width="498.578" height="499.998" viewBox="0 0 21.938 22">
  <defs>
    <style>
      .cls-1 {
        fill: #000;
        fill-rule: evenodd;
      }
    </style>
  </defs>
  <path d="M21.534,10.010 L11.929,0.404 C11.661,0.136 11.310,0.003 10.959,0.003 C10.608,0.003 10.257,0.136 9.989,0.404 L0.384,10.010 C-0.008,10.401 -0.126,10.616 0.087,11.130 C0.299,11.642 0.956,11.976 1.511,11.976 L2.883,11.976 L2.883,21.270 C2.883,21.993 3.569,21.956 3.569,21.956 L7.185,21.956 C7.871,21.956 7.871,21.270 7.871,21.270 L7.871,14.660 C7.882,13.974 8.557,13.974 8.557,13.974 L13.174,13.974 C13.174,13.974 13.860,13.974 13.860,14.660 L13.860,21.234 C13.860,21.234 13.860,21.948 14.546,21.948 C15.232,21.948 18.194,21.956 18.194,21.956 C18.880,21.956 18.880,21.270 18.880,21.270 L18.880,11.976 L20.564,11.976 C21.119,11.976 21.619,11.642 21.832,11.130 C22.044,10.616 21.927,10.401 21.534,10.010 Z" class="cls-1"/>
</svg>
