<svg id="Arrow" xmlns="http://www.w3.org/2000/svg" xmlns:xlink="http://www.w3.org/1999/xlink" viewBox="0 0 500 406.2"><defs><style>.cls-1,.cls-2{fill:none;}.cls-2{clip-path:url(#clip-path);}.cls-3{clip-path:url(#clip-path-37);}.cls-4{fill:#fff;}</style><clipPath id="clip-path"><rect class="cls-1" width="500" height="500"/></clipPath><clipPath id="clip-path-37" transform="translate(0 -46.9)"><rect class="cls-1" width="500" height="500"/></clipPath></defs><title>list</title><g class="cls-3"><g class="cls-3"><path class="cls-4" d="M93.8,406.2a46.9,46.9,0,1,0-46.9,46.9,46.9,46.9,0,0,0,46.9-46.9" transform="translate(0 -46.9)"/></g><g class="cls-3"><path class="cls-4" d="M93.8,250a46.9,46.9,0,1,0-46.9,46.9A46.9,46.9,0,0,0,93.8,250" transform="translate(0 -46.9)"/></g><g class="cls-3"><path class="cls-4" d="M93.8,93.8a46.9,46.9,0,1,0-46.9,46.9A46.9,46.9,0,0,0,93.8,93.8" transform="translate(0 -46.9)"/></g><g class="cls-3"><path class="cls-4" d="M500,93.8A31.18,31.18,0,0,1,468.8,125H156.2a31.2,31.2,0,1,1,0-62.4H468.7A31.13,31.13,0,0,1,500,93.8" transform="translate(0 -46.9)"/></g><g class="cls-3"><path class="cls-4" d="M500,250a31.18,31.18,0,0,1-31.2,31.2H156.2a31.2,31.2,0,0,1,0-62.4H468.7A31.2,31.2,0,0,1,500,250" transform="translate(0 -46.9)"/></g><g class="cls-3"><path class="cls-4" d="M500,406.2a31.18,31.18,0,0,1-31.2,31.2H156.2a31.2,31.2,0,0,1,0-62.4H468.7A31.26,31.26,0,0,1,500,406.2" transform="translate(0 -46.9)"/></g></g></svg>