<svg id="Arrow" xmlns="http://www.w3.org/2000/svg" viewBox="0 0 500 433.4"><defs><style>.cls-1{fill:#fff;}</style></defs><title>next</title><path class="cls-1" d="M276.1,203.4,79.9,59.5C69.3,51.7,57.8,47.7,46.6,47.7,23.4,47.7,0,65.7,0,100V400c0,34.4,23.4,52.3,46.6,52.3,11.3,0,22.8-4.1,33.3-11.8l196.2-144c15.7-11.5,24.7-28.5,24.7-46.6S291.9,214.9,276.1,203.4Z" transform="translate(0 -33.3)"/><path class="cls-1" d="M433.3,33.3A66.75,66.75,0,0,0,366.6,100V400A66.7,66.7,0,1,0,500,400V100A66.75,66.75,0,0,0,433.3,33.3Z" transform="translate(0 -33.3)"/></svg>