<?xml version="1.0" encoding="utf-8"?>
<!-- Generator: Adobe Illustrator 18.0.0, SVG Export Plug-In . SVG Version: 6.00 Build 0)  -->
<!DOCTYPE svg PUBLIC "-//W3C//DTD SVG 1.1//EN" "http://www.w3.org/Graphics/SVG/1.1/DTD/svg11.dtd">
<svg version="1.1" id="Arrow_1_" xmlns="http://www.w3.org/2000/svg" xmlns:xlink="http://www.w3.org/1999/xlink" x="0px" y="0px"
	 width="500px" height="500px" viewBox="0 0 500 500" enable-background="new 0 0 500 500" xml:space="preserve">
  <metadata>
    <?xpacket begin="﻿" id="W5M0MpCehiHzreSzNTczkc9d"?>
    <x:xmpmeta xmlns:x="adobe:ns:meta/" x:xmptk="Adobe XMP Core 5.6-c011 79.156380, 2014/06/19-23:40:37        ">
     <rdf:RDF xmlns:rdf="http://www.w3.org/1999/02/22-rdf-syntax-ns#">
      <rdf:Description rdf:about=""
        xmlns:xmpMM="http://ns.adobe.com/xap/1.0/mm/"
        xmlns:stEvt="http://ns.adobe.com/xap/1.0/sType/ResourceEvent#"
        xmlns:xmp="http://ns.adobe.com/xap/1.0/"
        xmlns:xmpRights="http://ns.adobe.com/xap/1.0/rights/"
        xmlns:dc="http://purl.org/dc/elements/1.1/"
       xmpMM:DocumentID="xmp.did:eaca62bbbaf7a75991e6ba1c942be578"
       xmpMM:OriginalDocumentID="xmp.did:eaca62bbbaf7a75991e6ba1c942be578"
       xmpMM:InstanceID="xmp.iid:eaca62bbbaf7a75991e6ba1c942be578"
       xmp:ModifyDate="2015-04-14T14:59:58+02:00"
       xmp:MetadataDate="2015-04-14T14:59:58+02:00"
       xmpRights:Marked="True"
       xmpRights:WebStatement="http://www.adobe.com/legal/general-terms.html">
       <xmpMM:History>
        <rdf:Seq>
         <rdf:li
          stEvt:action="saved"
          stEvt:instanceID="xmp.iid:eaca62bbbaf7a75991e6ba1c942be578"
          stEvt:when="2015-04-14T14:59:58+02:00"/>
        </rdf:Seq>
       </xmpMM:History>
       <xmpRights:UsageTerms>
        <rdf:Alt>
         <rdf:li xml:lang="x-default">This work is licensed under the Adobe General Terms of Use http://www.adobe.com/legal/general-terms.html.</rdf:li>
        </rdf:Alt>
       </xmpRights:UsageTerms>
       <dc:publisher>
        <rdf:Bag>
         <rdf:li>Adobe Systems Incorporated</rdf:li>
        </rdf:Bag>
       </dc:publisher>
      </rdf:Description>
     </rdf:RDF>
    </x:xmpmeta>
    <?xpacket end="r"?>
  </metadata>
<g>
	<g>
		<g>
			<g>
				<path d="M349.9,217.1L282.7,150l-10.2-10.2l-10.4-10.4L48.6,342.7l-0.4,0.4c-0.7,0.7-1.5,1.6-1.9,2.3c-0.6,0.9-1.2,1.9-1.5,3.1
					c0,0-0.1,0.1-0.1,0.3L0.7,480.5c-1.8,5.3-0.3,11,3.5,14.9c2.8,2.8,6.6,4.4,10.4,4.4c1.6,0,3.1-0.3,4.7-0.9l129.8-43.3
					c0.7-0.2,1.3-0.3,2-0.6c1.2-0.4,2.2-1,3.2-1.6c0.9-0.6,1.6-1.2,2.3-1.9l0.4-0.4l213.4-213.4l-10.2-10.2L349.9,217.1z
					 M91.6,444.1l-35.8-35.7l9.2-27.7l54.3,54.3L91.6,444.1z"/>
			</g>
		</g>
	</g>
	<g>
		<g>
			<g>
				<polygon points="408.4,158.6 341.3,91.4 331,81.2 320.6,70.8 282.7,108.5 293.1,118.9 303.5,129.3 370.5,196.3 380.9,206.7 
					391.3,217.1 429.1,179.2 418.8,169 				"/>
			</g>
		</g>
	</g>
	<g>
		<g>
			<g>
				<path d="M487.2,58.9l-46.4-46.4c-16.5-16.5-45.5-16.5-62,0L341.3,50l10.4,10.4L362,70.8l67,67l10.4,10.4l10.4,10.4l37.3-37.5
					C504.3,104,504.3,76.1,487.2,58.9z"/>
			</g>
		</g>
	</g>
</g>
</svg>
