<svg id="Arrow" xmlns="http://www.w3.org/2000/svg" viewBox="0 0 240.9 354.7"><title>question</title><g id="_451-help-symbol2.png" data-name="451-help-symbol2.png"><path d="M249.6,357.1a35.7,35.7,0,1,0,35.7,35.7A35.72,35.72,0,0,0,249.6,357.1Zm4.2-283.3c-70.1,0-119.6,38.9-119.6,109.4v13.2H200V184.3c0-30.6,17.3-52.6,52.2-52.6,31.1,0,51.1,14.8,51.1,39,0,21.1-12.6,31.1-31.6,44.8l-24.2,17.9c-24.2,17.9-33.1,24.8-33.1,63.8v24.2h71.4V306.1c0-31.6,1.3-23.2,21.3-38L334,248.6c25.2-18.4,41.1-41.6,41.1-78C375,112.3,325.5,73.8,253.8,73.8Z" transform="translate(-134.2 -73.8)"/></g></svg>