<svg id="Layer_1" data-name="Layer 1" xmlns="http://www.w3.org/2000/svg" viewBox="0 0 500 500"><defs><style>.cls-1{fill:#fff;}</style></defs><title>settings</title><path class="cls-1" d="M500,285.6V214.5H424.9a175.91,175.91,0,0,0-22.8-57.7l54.1-54.1L397.3,43.8,343.2,97.9a177.94,177.94,0,0,0-57.7-22.7V0H214.4V75.2a177.4,177.4,0,0,0-57.6,22.7L102.7,43.8,43.8,102.7l54.1,54.1a178.29,178.29,0,0,0-22.7,57.6H0v71.1H75.2a177.94,177.94,0,0,0,22.7,57.7L43.8,397.3l58.9,58.9,54.1-54.1a178.13,178.13,0,0,0,57.7,22.8V500h71.1V424.9a177.94,177.94,0,0,0,57.7-22.7l54,54,58.9-58.9-54-54a177.94,177.94,0,0,0,22.7-57.7ZM250.1,321.4a71.3,71.3,0,1,1,71.3-71.3A71.27,71.27,0,0,1,250.1,321.4Z"/></svg>