<?xml version="1.0" encoding="utf-8"?>
<!-- Generator: Adobe Illustrator 18.0.0, SVG Export Plug-In . SVG Version: 6.00 Build 0)  -->
<!DOCTYPE svg PUBLIC "-//W3C//DTD SVG 1.1 Tiny//EN" "http://www.w3.org/Graphics/SVG/1.1/DTD/svg11-tiny.dtd">
<svg version="1.1" baseProfile="tiny" id="Arrow_1_"
	 xmlns="http://www.w3.org/2000/svg" xmlns:xlink="http://www.w3.org/1999/xlink" x="0px" y="0px" width="500px" height="500px"
	 viewBox="0 0 500 500" xml:space="preserve">
  <metadata>
    <?xpacket begin="﻿" id="W5M0MpCehiHzreSzNTczkc9d"?>
    <x:xmpmeta xmlns:x="adobe:ns:meta/" x:xmptk="Adobe XMP Core 5.6-c011 79.156380, 2014/06/19-23:40:37        ">
     <rdf:RDF xmlns:rdf="http://www.w3.org/1999/02/22-rdf-syntax-ns#">
      <rdf:Description rdf:about=""
        xmlns:xmpMM="http://ns.adobe.com/xap/1.0/mm/"
        xmlns:stEvt="http://ns.adobe.com/xap/1.0/sType/ResourceEvent#"
        xmlns:xmp="http://ns.adobe.com/xap/1.0/"
        xmlns:xmpRights="http://ns.adobe.com/xap/1.0/rights/"
        xmlns:dc="http://purl.org/dc/elements/1.1/"
       xmpMM:DocumentID="xmp.did:6275ca6323c15e7e7d7df1c9364b7b97"
       xmpMM:OriginalDocumentID="xmp.did:6275ca6323c15e7e7d7df1c9364b7b97"
       xmpMM:InstanceID="xmp.iid:6275ca6323c15e7e7d7df1c9364b7b97"
       xmp:ModifyDate="2015-04-09T16:19:21+02:00"
       xmp:MetadataDate="2015-04-09T16:19:21+02:00"
       xmpRights:Marked="True"
       xmpRights:WebStatement="http://www.adobe.com/legal/general-terms.html">
       <xmpMM:History>
        <rdf:Seq>
         <rdf:li
          stEvt:action="saved"
          stEvt:instanceID="xmp.iid:6275ca6323c15e7e7d7df1c9364b7b97"
          stEvt:when="2015-04-09T16:19:21+02:00"/>
        </rdf:Seq>
       </xmpMM:History>
       <xmpRights:UsageTerms>
        <rdf:Alt>
         <rdf:li xml:lang="x-default">This work is licensed under the Adobe General Terms of Use http://www.adobe.com/legal/general-terms.html.</rdf:li>
        </rdf:Alt>
       </xmpRights:UsageTerms>
       <dc:publisher>
        <rdf:Bag>
         <rdf:li>Adobe Systems Incorporated</rdf:li>
        </rdf:Bag>
       </dc:publisher>
      </rdf:Description>
     </rdf:RDF>
    </x:xmpmeta>
    <?xpacket end="r"?>
  </metadata>
<g id="_x35_19-tools-1.png">
	<g>
		<path d="M158,222.3l30.3,32.4l66.6-66.6l-32.3-30.3c16.5-41.5,8-90.5-25.6-124.1C166.6,3.4,123.7-6,85,4.5c0,0.2,71.2,70,71.2,70
			c15,15,15,39.3,0,54.3L128.9,156c-15,15-39.4,15-54.5,0c0,0-70-70.9-70.1-71c-10.5,38.6-1.1,81.4,29.3,111.7
			C67.2,230.3,116.4,238.7,158,222.3z M488.5,406.7L354.2,281l-73,73l125.7,134.3c15,15,39.4,15,54.4,0l27.2-27.2
			C503.6,446.1,503.6,421.7,488.5,406.7z M442.5,461.6c-10.6,0-19.2-8.6-19.2-19.2c0-10.6,8.6-19.2,19.2-19.2s19.2,8.6,19.2,19.2
			C461.7,453,453.1,461.6,442.5,461.6z M389.9,189.6c52.8,52.8,33.4,99.2,33.4,99.2c18.6-12.6,38.4-39,38.4-76.8
			c0-39-9.6-67.5-36-93.9c-10.8-10.8-73.9-71.4-73.9-71.4c3.2-12.4,0.5-26-9.4-35.6c-14.9-14.6-39.1-14.6-54.1,0l-27,26.4
			c-14.9,14.6-14.9,38.3,0,52.9c9.9,9.7,23.8,12.3,36.4,9.2l50.7,49.6l-112,112c-12.8-3.3-26.7-0.5-36.7,9.5l-150,150
			c-15.1,15.1-15.1,39.5,0,54.5l13.6,13.6c15.1,15,39.5,15,54.5,0l150-150c10-10,12.7-24,9.5-36.7L389.9,189.6z"/>
	</g>
</g>
</svg>
